<?xml version="1.0" standalone="no"?>
<!DOCTYPE svg PUBLIC "-//W3C//DTD SVG 20010904//EN"
 "http://www.w3.org/TR/2001/REC-SVG-20010904/DTD/svg10.dtd">
<svg version="1.0" xmlns="http://www.w3.org/2000/svg"
 width="2106.000000pt" height="2034.000000pt" viewBox="0 0 2106.000000 2034.000000"
 preserveAspectRatio="xMidYMid meet">
<metadata>
Created by potrace 1.16, written by Peter Selinger 2001-2019
</metadata>
<g transform="translate(0.000000,2034.000000) scale(0.100000,-0.100000)"
fill="#000000" stroke="none">
<path d="M12565 19648 c-16 -5 -82 -9 -146 -9 -107 2 -124 -1 -200 -29 -74
-27 -95 -30 -197 -30 -99 0 -118 -3 -143 -21 -16 -11 -29 -26 -29 -33 0 -23
-36 -46 -70 -46 -27 0 -43 -10 -82 -50 -27 -28 -59 -74 -73 -103 -13 -28 -42
-85 -65 -125 -22 -41 -40 -84 -40 -97 0 -43 -21 -47 -89 -15 -40 19 -79 30
-106 30 -42 0 -45 -2 -63 -43 -11 -24 -33 -59 -51 -79 -21 -24 -31 -46 -31
-67 0 -35 -3 -37 -72 -46 -36 -5 -61 -18 -110 -57 -35 -27 -94 -68 -131 -90
-55 -32 -72 -48 -90 -85 l-22 -45 28 -24 c16 -13 36 -24 45 -24 21 1 151 -62
151 -73 1 -4 -24 -37 -54 -72 -47 -56 -55 -71 -55 -106 0 -63 23 -97 67 -101
28 -2 37 -7 34 -18 -2 -8 -4 -28 -4 -44 0 -37 51 -86 117 -111 44 -17 51 -17
75 -4 14 8 47 47 74 87 26 40 52 72 57 72 12 0 13 6 -5 -60 -32 -118 -12 -180
58 -180 17 0 101 11 185 24 207 33 227 46 335 232 23 41 45 73 49 71 3 -1 24
-29 46 -62 l40 -59 -49 -54 c-28 -30 -59 -72 -69 -93 -11 -20 -30 -41 -42 -44
-39 -12 -211 -117 -241 -147 -35 -34 -32 -47 34 -143 49 -72 69 -114 69 -143
0 -22 -44 21 -133 132 -83 102 -128 131 -212 141 -84 9 -102 -7 -116 -99 -6
-38 -9 -96 -7 -128 4 -52 9 -63 45 -101 56 -58 91 -114 158 -246 72 -145 136
-213 210 -227 50 -10 50 -10 49 -47 -2 -64 -13 -65 -127 -4 l-104 55 -79 -42
c-93 -48 -164 -112 -164 -147 0 -13 -12 -60 -26 -103 -44 -139 -24 -165 133
-177 58 -5 108 -11 111 -13 2 -3 -10 -24 -27 -48 -47 -64 -42 -87 54 -203 30
-37 55 -74 55 -81 0 -8 -11 -17 -26 -20 -35 -9 -67 24 -115 119 -50 99 -77
117 -176 117 -39 0 -79 -3 -88 -6 -39 -15 -58 -109 -34 -171 5 -15 31 -54 55
-86 57 -72 56 -95 -6 -113 -30 -9 -62 -29 -94 -61 -72 -72 -86 -106 -86 -208
0 -141 13 -148 344 -164 248 -12 247 -12 266 60 10 34 33 69 47 69 3 0 26 -15
52 -34 45 -33 105 -56 147 -56 12 0 38 13 59 30 l37 29 37 -19 c49 -25 63 -43
67 -87 5 -62 33 -67 122 -22 109 54 193 167 212 283 11 71 3 94 -49 130 -44
31 -111 100 -111 115 0 5 25 40 55 78 l55 68 0 116 0 116 53 12 c82 18 119 61
141 161 3 14 19 33 36 43 38 23 38 44 0 92 -36 46 -37 49 -5 87 19 22 25 41
25 74 0 52 -11 76 -53 122 -29 30 -47 38 -129 56 l-28 6 20 33 c27 44 25 80
-7 117 -31 38 -25 57 27 80 160 72 173 82 207 151 l32 66 52 7 c71 10 113 51
127 126 6 30 20 101 30 157 14 71 43 161 95 290 42 104 85 216 96 250 12 34
46 109 76 167 52 100 55 110 55 179 0 81 -9 97 -54 97 -30 0 -64 -30 -175
-155 -33 -38 -45 -46 -48 -33 -11 45 112 221 189 271 30 19 66 48 81 66 40 48
68 150 74 266 8 164 -17 219 -117 250 -43 14 -67 30 -108 73 l-52 56 -113 7
c-150 10 -216 9 -252 -3z"/>
<path d="M10542 18378 c-7 -7 -12 -23 -12 -37 -1 -35 -17 -60 -71 -109 -25
-23 -54 -59 -63 -81 l-18 -39 51 -62 c28 -33 51 -65 51 -70 0 -5 -32 -19 -70
-30 -74 -22 -95 -41 -106 -96 -5 -26 1 -38 35 -78 22 -26 46 -56 52 -67 15
-29 -5 -49 -51 -49 -47 0 -67 -22 -79 -87 -13 -65 0 -114 40 -147 29 -25 29
-26 18 -71 -11 -42 -10 -49 8 -73 20 -27 22 -27 139 -27 125 0 177 -14 191
-52 9 -23 -48 -68 -102 -82 -46 -11 -90 -54 -101 -96 -6 -26 8 -78 39 -140 32
-65 168 -253 209 -290 36 -33 42 -35 108 -35 68 0 71 1 81 28 22 55 25 57 69
54 33 -2 49 2 68 20 32 30 89 118 98 152 3 15 42 65 85 113 121 132 169 207
176 277 l6 57 -101 100 c-106 105 -107 106 -117 180 -5 38 -19 64 -76 135 -48
61 -71 101 -76 127 -3 21 -22 59 -42 86 -20 26 -57 76 -83 109 -25 34 -58 94
-73 134 -15 40 -44 104 -63 141 -30 58 -42 72 -83 93 -52 26 -117 32 -137 12z"/>
<path d="M9890 17700 c-35 -35 -27 -89 21 -144 47 -53 82 -60 117 -23 28 29
28 62 1 107 -49 81 -97 102 -139 60z"/>
<path d="M9343 17300 c-62 -38 -57 -102 17 -193 85 -105 85 -157 1 -207 -74
-43 -80 -117 -15 -183 34 -33 40 -36 122 -42 48 -4 101 -14 117 -23 17 -8 80
-64 141 -124 101 -100 113 -108 136 -99 25 9 51 42 68 85 7 20 1 36 -35 93
-49 75 -53 96 -30 184 18 70 22 60 -84 213 -72 104 -124 153 -182 171 -10 3
-23 21 -29 39 -29 89 -148 134 -227 86z"/>
<path d="M8562 17045 c-59 -14 -102 -48 -102 -79 0 -17 10 -24 51 -33 27 -7
76 -28 108 -48 32 -19 66 -35 74 -35 19 0 45 77 54 158 l6 52 -69 -1 c-38 0
-93 -6 -122 -14z"/>
<path d="M10032 16905 c-36 -26 -52 -68 -52 -140 0 -71 12 -104 61 -166 20
-25 29 -48 29 -72 0 -60 16 -86 66 -108 25 -12 56 -18 67 -15 12 3 51 27 86
53 l64 47 -6 106 c-10 161 -6 155 -134 232 -128 77 -149 85 -181 63z"/>
<path d="M8183 16804 c-9 -25 14 -87 53 -138 19 -26 50 -79 68 -119 58 -127
98 -157 211 -157 65 0 89 18 113 83 20 55 76 286 70 291 -1 2 -92 -1 -201 -7
l-199 -11 -34 37 c-37 39 -71 48 -81 21z"/>
<path d="M7708 16629 c-84 -7 -90 -11 -270 -152 -69 -54 -131 -88 -283 -157
-133 -61 -189 -122 -165 -181 13 -32 55 -54 120 -64 61 -10 74 -18 110 -70 17
-25 39 -45 49 -45 28 0 95 53 225 177 101 97 176 156 176 139 0 -2 -11 -24
-25 -47 -31 -55 -33 -111 -4 -140 28 -28 50 -19 132 54 75 67 101 105 111 159
4 21 22 58 41 82 67 88 80 138 50 196 -24 46 -111 62 -267 49z"/>
<path d="M10292 16377 c-18 -5 -51 -27 -72 -49 -67 -64 -48 -123 53 -168 80
-37 164 -19 213 45 35 46 32 89 -9 130 -49 49 -116 64 -185 42z"/>
<path d="M9129 16344 c-7 -9 -15 -47 -17 -84 -4 -66 -3 -69 30 -106 39 -42 62
-41 78 1 17 45 11 98 -18 150 -29 54 -51 65 -73 39z"/>
<path d="M7875 16058 c-96 -36 -173 -115 -246 -251 -30 -55 -73 -121 -96 -145
-24 -25 -43 -53 -43 -66 0 -49 131 -210 196 -241 39 -18 88 -17 141 6 29 12
37 11 90 -13 32 -15 75 -30 96 -33 40 -6 60 -31 36 -45 -7 -5 -60 -26 -117
-47 -112 -41 -142 -61 -142 -97 0 -32 52 -100 102 -133 37 -25 51 -28 122 -28
70 0 90 5 146 32 78 38 144 84 165 116 20 31 74 241 76 298 3 57 -5 69 -42 69
-68 0 -83 22 -109 160 -23 123 -35 147 -109 233 -40 46 -63 82 -70 112 -8 34
-19 48 -42 60 -40 21 -116 27 -154 13z"/>
<path d="M8645 16034 c-29 -30 -46 -88 -96 -338 -27 -137 -67 -314 -89 -394
-22 -80 -40 -160 -40 -178 l0 -32 63 5 c43 4 82 0 119 -11 162 -47 297 11 361
153 15 33 22 73 25 141 3 84 1 100 -20 140 l-23 45 -112 -2 -111 -2 1 225 2
226 -24 19 c-28 23 -35 24 -56 3z"/>
<path d="M7500 15951 c-56 -18 -141 -64 -160 -88 -24 -31 -25 -41 -4 -92 29
-73 65 -64 182 44 40 37 75 78 78 91 12 46 -29 65 -96 45z"/>
<path d="M10144 15953 c-38 -7 -57 -40 -62 -101 -4 -58 -4 -58 57 -139 63 -83
123 -143 144 -143 51 -1 223 -33 229 -43 5 -6 29 -48 53 -93 51 -92 54 -118
29 -251 -12 -66 -13 -97 -5 -146 35 -207 51 -288 61 -306 6 -12 29 -25 53 -31
72 -19 111 -32 149 -51 55 -28 74 -24 135 28 l55 48 33 -40 c29 -34 40 -40 92
-46 84 -11 316 -10 401 1 72 9 121 27 195 72 l38 23 18 -22 c11 -13 31 -27 46
-33 44 -17 157 -12 226 10 96 30 126 52 140 102 6 24 20 60 30 81 17 32 18 44
9 77 -8 30 -8 51 1 80 17 55 -8 106 -83 175 -115 104 -224 140 -396 134 -87
-4 -91 -5 -152 -48 -64 -45 -246 -131 -278 -131 -28 0 -324 60 -354 71 -14 6
-29 21 -32 33 -3 12 -23 46 -46 76 l-40 54 6 87 7 86 -41 33 c-31 25 -45 45
-56 85 -19 65 -40 75 -149 75 -110 0 -154 13 -175 52 -46 85 -101 119 -219
137 -73 11 -82 11 -119 4z"/>
<path d="M9567 15735 c-37 -31 -67 -59 -67 -64 0 -4 32 -36 70 -70 66 -59 70
-65 70 -106 0 -126 -132 -79 -234 84 -27 42 -73 61 -149 61 -37 0 -49 -5 -66
-26 -33 -42 -26 -58 43 -108 87 -62 103 -84 111 -159 11 -96 13 -97 183 -97
l145 0 -47 -50 c-25 -27 -46 -56 -46 -65 0 -77 145 -175 258 -175 78 0 89 14
95 122 3 51 10 145 16 208 5 63 12 188 15 277 l7 162 -39 20 c-49 25 -137 41
-227 41 l-71 0 -67 -55z"/>
<path d="M6460 15455 c-6 -8 -16 -49 -21 -92 -17 -138 -20 -143 -188 -378
-164 -228 -256 -349 -333 -436 l-67 -76 73 -144 c70 -139 94 -208 131 -381 19
-91 1 -85 198 -63 224 26 247 38 345 182 55 81 174 190 300 274 134 90 231
138 376 188 138 48 161 62 176 107 15 43 7 89 -35 218 -69 211 -87 234 -194
246 -89 10 -143 41 -213 122 -126 147 -136 155 -211 183 -157 58 -311 81 -337
50z"/>
<path d="M9084 15200 c-31 -12 -54 -49 -54 -86 0 -30 3 -33 50 -44 67 -16 110
-6 110 26 0 42 -27 93 -55 104 -15 6 -27 10 -28 9 -1 0 -12 -4 -23 -9z"/>
<path d="M10199 15187 c-61 -41 -143 -205 -137 -275 3 -31 12 -43 70 -87 38
-28 96 -68 130 -89 55 -32 69 -37 111 -33 38 3 56 11 80 36 l32 31 -3 111 c-3
160 -16 236 -44 267 -57 62 -176 82 -239 39z"/>
<path d="M3318 14519 c-133 -140 -612 -826 -1377 -1974 -646 -969 -796 -1204
-786 -1235 8 -26 76 -68 195 -120 126 -55 130 -64 69 -145 -29 -39 -43 -68
-46 -99 l-5 -44 105 -78 c189 -140 676 -446 1204 -757 389 -229 619 -356 982
-540 291 -148 315 -158 325 -141 6 11 11 64 11 121 0 101 0 102 -33 136 -32
33 -80 60 -268 148 l-102 48 -4 208 c-6 234 -9 249 -90 426 -66 146 -74 191
-53 325 9 59 25 166 35 237 24 154 26 392 6 506 -8 42 -31 136 -51 209 -33
119 -37 142 -33 224 5 116 34 176 109 225 50 32 69 62 69 104 0 26 -40 108
-75 156 -17 23 -25 47 -25 73 0 30 68 260 107 364 2 5 -59 63 -136 127 l-140
116 43 128 c48 144 127 316 209 455 124 212 132 241 87 312 -37 58 -66 121
-125 272 -23 61 -54 133 -69 161 -24 49 -67 93 -89 93 -6 0 -27 -18 -49 -41z"/>
<path d="M7414 14496 c-206 -43 -402 -119 -478 -187 -20 -17 -49 -58 -66 -90
-17 -33 -57 -99 -88 -147 l-59 -87 57 -118 c31 -64 61 -122 66 -127 6 -6 44
-19 85 -30 41 -12 81 -23 89 -26 8 -3 -49 -25 -128 -49 -138 -42 -192 -66
-192 -85 0 -25 51 -145 70 -165 34 -36 104 -62 307 -111 103 -25 208 -56 234
-69 85 -44 219 -159 219 -189 0 -14 -58 -3 -158 28 -126 40 -181 52 -317 65
-180 18 -245 21 -245 13 0 -5 163 -57 363 -115 422 -124 589 -168 599 -159 9
10 72 255 183 712 120 496 148 620 141 627 -3 4 -15 -2 -26 -12 -17 -15 -20
-31 -20 -92 l0 -74 -42 -19 c-79 -36 -92 -24 -63 60 8 23 15 49 15 57 0 22
-42 56 -145 117 l-95 57 -57 -40 c-31 -23 -62 -41 -70 -41 -17 0 -17 37 1 88
24 68 39 159 32 197 -7 34 -8 35 -54 34 -26 0 -97 -11 -158 -23z"/>
<path d="M10332 14435 c-114 -25 -120 -32 -170 -185 -54 -171 -74 -283 -76
-440 -1 -149 27 -338 56 -376 11 -13 37 -28 58 -34 34 -9 47 -7 90 11 27 12
51 29 54 38 3 9 10 60 17 114 9 76 16 100 30 107 10 6 63 15 118 22 l101 12
26 80 c15 45 72 172 127 284 97 198 99 203 81 223 -19 21 -168 99 -189 99 -7
0 -53 14 -103 30 -101 33 -127 35 -220 15z"/>
<path d="M8680 14419 c-66 -27 -84 -67 -64 -144 8 -31 14 -59 12 -61 -2 -2
-26 8 -53 22 -94 48 -178 15 -195 -77 -5 -24 -4 -141 1 -259 5 -118 6 -239 3
-268 -7 -60 -40 -109 -66 -99 -21 8 -38 89 -38 181 0 126 -49 348 -85 385 -20
20 -40 -52 -239 -824 -143 -554 -124 -501 -172 -498 -54 4 -173 35 -662 175
-232 66 -425 118 -429 115 -7 -8 23 -161 48 -243 16 -51 28 -70 67 -103 49
-43 152 -101 213 -120 43 -14 82 -54 97 -98 6 -18 16 -79 23 -135 14 -131 28
-164 73 -183 45 -19 227 -35 436 -37 163 -3 166 -2 260 30 52 18 133 42 180
54 70 18 92 28 124 60 22 21 45 38 53 38 7 0 41 -28 76 -63 59 -60 240 -188
337 -239 39 -20 59 -23 153 -23 l108 0 45 47 c56 60 58 97 10 209 -41 94 -51
135 -36 144 6 3 41 0 78 -8 37 -8 88 -18 115 -22 l47 -6 0 71 c0 47 -6 85 -17
108 -10 21 -78 100 -153 177 -153 158 -209 228 -240 300 -24 55 -23 71 9 190
21 77 21 83 6 175 -17 107 -31 256 -41 442 l-7 127 67 89 c83 112 110 171 103
225 -14 103 -151 184 -247 146z"/>
<path d="M9443 14338 c-47 -52 -72 -141 -59 -211 3 -18 24 -58 46 -87 47 -63
51 -103 18 -170 -36 -70 -44 -70 -132 -9 -74 51 -78 53 -103 39 -38 -21 -72
-95 -73 -154 0 -77 64 -176 165 -256 71 -57 111 -116 126 -188 21 -104 29
-120 82 -166 67 -56 86 -62 139 -38 41 18 108 82 108 103 0 5 20 18 44 29 53
22 117 78 148 128 20 32 23 50 22 127 -1 75 -6 105 -33 180 -18 50 -39 112
-48 138 -11 37 -24 54 -54 73 -21 13 -39 28 -39 33 0 4 24 39 54 76 81 102 84
110 56 140 l-24 25 22 16 c19 13 22 24 22 88 0 93 -8 101 -96 93 -46 -3 -84
-14 -124 -34 l-57 -30 -84 38 c-46 21 -89 39 -95 39 -6 0 -20 -10 -31 -22z"/>
<path d="M11335 14286 c-22 -7 -54 -20 -71 -29 -127 -66 -263 -374 -330 -747
-25 -140 -24 -377 2 -450 21 -61 11 -55 170 -100 40 -11 82 -29 95 -39 l24
-19 -28 -11 c-16 -6 -55 -11 -88 -11 -159 0 -168 -63 -31 -211 37 -40 81 -78
99 -85 18 -8 71 -14 120 -15 115 -1 130 -6 156 -54 13 -22 34 -45 47 -52 67
-32 630 -46 737 -18 42 11 114 15 274 15 l216 0 9 53 c7 41 13 53 29 55 28 4
102 -47 193 -133 l77 -72 -11 -39 c-6 -22 -14 -46 -18 -54 -3 -9 0 -24 7 -35
14 -18 16 -18 70 -1 45 14 63 15 96 6 48 -13 53 -35 17 -69 -32 -30 -56 -81
-56 -120 0 -17 2 -31 5 -31 3 0 49 22 103 49 137 68 144 69 175 23 13 -20 86
-101 160 -180 202 -213 265 -303 307 -433 29 -90 26 -105 -69 -307 -81 -172
-111 -245 -111 -272 0 -11 27 -49 59 -85 93 -103 106 -168 37 -192 -22 -7 -79
-31 -126 -53 -91 -42 -129 -49 -353 -69 -126 -11 -142 -20 -150 -87 -3 -31
-16 -58 -41 -91 -40 -51 -42 -69 -25 -171 16 -93 50 -127 144 -147 39 -8 104
-15 146 -15 72 0 80 2 125 35 68 49 139 85 166 85 13 0 50 13 83 30 107 53
201 33 319 -69 37 -33 110 -85 162 -116 52 -31 106 -66 121 -79 27 -23 27 -25
10 -43 -9 -11 -17 -29 -17 -40 0 -34 43 -86 98 -119 67 -40 246 -100 339 -112
59 -9 82 -17 137 -55 40 -28 86 -50 118 -56 79 -17 267 -31 432 -31 l149 0 -6
76 c-4 53 -11 82 -24 96 -28 33 -139 102 -320 199 -91 50 -191 110 -222 134
-76 59 -135 121 -127 134 17 27 127 1 238 -55 133 -67 539 -216 553 -203 2 3
9 65 14 139 6 74 13 165 16 201 l5 66 -136 149 c-75 82 -163 184 -197 226 -59
74 -66 79 -142 108 -122 46 -142 59 -237 147 -48 45 -111 94 -140 110 -29 15
-54 36 -56 46 -2 9 10 36 27 59 34 45 32 53 -23 127 -24 32 -25 36 -10 53 9 9
36 27 60 39 l44 21 56 -26 c88 -41 180 -111 294 -227 93 -94 113 -109 180
-137 121 -49 162 -57 202 -38 75 37 75 35 24 123 -55 96 -67 140 -40 149 82
25 107 81 110 239 0 67 6 122 14 140 8 17 16 74 18 128 4 92 2 100 -19 123
-32 35 -79 39 -184 19 -51 -10 -99 -16 -108 -12 -9 3 -25 24 -36 45 -20 39
-42 52 -89 52 -37 0 -83 26 -148 81 -78 68 -103 77 -249 94 -83 10 -149 24
-202 44 -108 40 -293 129 -298 144 -2 7 -1 61 3 122 8 122 4 117 97 145 22 7
52 21 67 32 27 19 27 20 12 49 -8 17 -35 44 -59 61 -42 30 -54 50 -90 151 -33
93 -136 207 -187 207 -9 0 -39 -18 -67 -40 -28 -22 -52 -40 -55 -40 -2 0 -2
33 1 73 7 95 -4 119 -69 156 -60 35 -87 38 -148 16 -39 -14 -45 -14 -70 2 -15
10 -63 59 -106 108 -152 173 -173 191 -235 204 -30 7 -62 9 -70 6 -8 -3 -26
-33 -41 -66 -26 -57 -28 -60 -50 -48 -41 22 -179 170 -198 212 -28 63 -193
227 -260 259 -81 38 -162 53 -217 38 -91 -22 -152 -67 -187 -137 -9 -17 -26
-39 -38 -47 -46 -32 -150 -11 -181 37 -7 12 -21 51 -29 87 -23 91 -81 225
-143 328 -63 106 -92 125 -175 115 -142 -16 -236 -86 -308 -230 -22 -43 -56
-100 -75 -125 -55 -71 -61 -88 -61 -163 0 -51 7 -84 24 -123 20 -47 21 -57 11
-90 -16 -49 -63 -116 -83 -120 -40 -8 -78 202 -57 323 22 133 78 284 159 425
26 45 25 62 -4 89 -49 46 -176 64 -261 37z"/>
<path d="M12231 14293 c-20 -4 -22 -9 -17 -36 7 -41 137 -303 169 -342 31 -37
75 -38 162 -2 43 18 90 28 159 33 68 5 104 12 118 24 l21 17 -29 54 c-38 70
-165 198 -228 228 -43 21 -65 24 -190 27 -77 1 -152 0 -165 -3z"/>
<path d="M4040 14039 c-41 -5 -97 -14 -123 -20 -53 -12 -67 -32 -67 -94 0 -61
-22 -84 -50 -50 -26 32 -57 18 -95 -42 -52 -83 -257 -498 -290 -587 -32 -89
-36 -82 75 -166 41 -31 97 -81 123 -109 45 -49 48 -55 42 -89 -4 -20 -16 -62
-27 -92 -77 -212 -83 -267 -35 -318 35 -37 47 -73 47 -141 0 -95 -42 -182 -93
-195 -19 -4 -31 -23 -56 -84 -35 -89 -37 -114 -16 -166 20 -48 88 -313 116
-451 l22 -110 -36 -175 c-41 -199 -66 -367 -70 -456 -2 -53 3 -73 35 -140 21
-44 58 -132 84 -198 25 -65 59 -140 75 -166 34 -56 35 -59 9 -102 -18 -31 -50
-144 -50 -179 0 -33 243 -150 361 -174 25 -4 26 -8 32 -96 4 -51 7 -142 7
-203 l0 -111 278 -107 c569 -221 1081 -392 1827 -612 577 -170 835 -231 1605
-382 277 -54 480 -89 536 -92 l92 -4 6 48 c15 122 157 1641 162 1739 l6 110
-38 21 c-22 12 -259 139 -528 283 -269 144 -495 270 -502 279 -7 9 -50 76 -96
149 -95 151 -69 134 -312 194 l-128 32 -44 56 c-86 109 -792 1086 -902 1248
-28 41 -42 73 -42 94 0 18 37 141 82 273 98 290 107 352 65 439 -58 118 -154
190 -253 191 -42 0 -62 -6 -105 -33 -65 -40 -119 -51 -139 -26 -12 14 -9 24
18 78 23 45 32 75 32 112 0 56 -16 125 -30 125 -8 0 -33 -20 -170 -137 -63
-55 -97 -65 -121 -37 -8 10 -15 69 -20 179 -13 283 -35 316 -167 261 -127 -52
-172 -40 -172 49 0 104 -83 122 -411 90 -85 -8 -188 -22 -229 -30 -41 -9 -87
-18 -101 -21 -35 -8 -55 21 -70 98 -13 66 -4 63 -149 47z m1772 -2149 c54 -26
44 -64 -39 -151 -31 -32 -54 -61 -52 -63 8 -7 148 -66 254 -106 127 -49 151
-66 141 -104 -13 -54 -119 -144 -187 -160 -16 -4 -60 9 -137 43 -113 50 -113
50 -121 27 -32 -82 -72 -155 -99 -178 -30 -25 -186 -88 -219 -88 -25 0 -10 49
37 121 22 34 40 66 40 71 0 13 -30 2 -134 -48 -49 -24 -99 -44 -111 -44 -29 0
-101 53 -125 92 -17 29 -18 33 -3 62 24 46 149 165 230 219 131 86 121 104
-90 171 -80 25 -154 54 -165 64 -12 9 -24 34 -28 56 l-7 39 394 -5 c289 -4
401 -9 421 -18z m250 -2092 c294 -318 321 -338 443 -337 91 0 151 21 252 91
89 61 133 74 213 63 46 -6 50 -9 50 -34 0 -47 -54 -107 -158 -176 -53 -35
-120 -80 -148 -99 -78 -54 -281 -152 -360 -174 -38 -11 -108 -39 -154 -62
-100 -51 -179 -61 -316 -40 -121 18 -188 53 -289 153 -84 83 -103 118 -69 131
9 3 70 6 136 5 120 -1 120 -1 176 34 68 41 113 57 158 57 45 0 68 34 58 87 -3
21 -35 118 -70 216 -63 173 -73 217 -55 217 5 0 65 -60 133 -132z"/>
<path d="M10121 13304 c-49 -56 -86 -118 -95 -161 -4 -18 -33 -61 -68 -100
-33 -37 -67 -82 -74 -100 -19 -43 -18 -109 2 -169 10 -31 19 -106 23 -204 8
-169 15 -195 75 -258 17 -19 60 -51 96 -72 73 -43 114 -82 130 -124 19 -51 52
-380 41 -409 -14 -36 -90 -111 -138 -135 -21 -11 -67 -26 -101 -32 l-62 -13 0
-91 c0 -50 7 -123 16 -163 15 -60 15 -76 4 -102 -14 -34 -30 -41 -30 -13 0 9
-18 40 -40 67 -24 30 -40 61 -40 76 0 15 14 84 30 153 17 70 28 131 25 137
-18 29 -203 103 -322 129 -76 16 -83 17 -87 1 -3 -9 -14 -61 -26 -116 -24
-116 -36 -151 -56 -159 -7 -3 -55 4 -106 15 -52 11 -162 24 -249 29 -198 10
-226 21 -299 114 -58 74 -88 98 -145 116 -103 33 -195 140 -252 293 -45 123
-43 121 -128 113 -88 -8 -273 -49 -313 -70 -75 -39 -94 -115 -43 -167 38 -37
89 -38 198 -5 106 32 122 36 128 25 8 -12 -72 -67 -212 -145 -88 -49 -122 -72
-118 -83 13 -33 18 -257 6 -279 -17 -32 -31 -27 -31 12 0 19 -13 59 -29 90
-41 76 -165 257 -215 313 l-42 46 -83 -13 c-226 -35 -591 41 -675 141 -57 67
-27 109 107 150 38 12 81 32 95 44 l26 23 -17 54 c-48 152 -197 313 -266 286
-55 -20 -116 22 -329 226 -89 86 -168 156 -176 156 -16 0 -61 -110 -157 -382
-57 -160 -60 -174 -46 -196 14 -24 737 -1024 879 -1217 l74 -101 100 -18 c136
-25 217 -52 253 -82 17 -14 71 -85 120 -159 50 -73 103 -142 118 -153 16 -10
134 -74 263 -142 250 -131 714 -380 749 -402 36 -22 31 -102 -64 -1148 -62
-688 -70 -801 -55 -810 15 -9 169 -30 605 -80 193 -22 438 -52 546 -65 108
-14 217 -25 242 -25 52 0 46 -10 67 114 29 178 230 570 412 804 84 108 128
180 128 210 0 28 23 38 118 52 126 18 152 45 152 156 0 71 -11 96 -67 149
l-48 45 100 0 c115 0 133 8 165 71 27 53 49 64 165 87 55 11 112 25 128 31 33
13 111 130 202 304 73 140 78 168 40 233 -25 42 -25 45 -9 76 9 18 43 71 75
118 32 47 70 111 84 143 33 72 29 109 -20 167 -19 23 -35 46 -35 51 0 17 59
39 104 39 31 0 63 -10 110 -35 49 -26 79 -35 114 -35 47 0 161 16 169 23 2 3
-5 28 -16 56 -10 28 -17 51 -15 51 2 0 30 -10 62 -23 97 -40 108 -41 141 -10
76 70 198 309 208 408 9 82 -2 116 -61 189 -30 38 -75 111 -101 163 l-47 94
21 23 c12 13 48 38 81 57 32 19 61 42 64 53 2 10 -7 55 -21 99 -22 66 -24 85
-15 109 9 26 8 33 -16 59 -39 42 -172 140 -258 189 -167 95 -340 128 -401 76
-26 -23 -28 -29 -27 -98 2 -71 12 -108 69 -245 l18 -43 -46 -98 c-56 -118
-105 -263 -147 -431 -17 -69 -38 -138 -47 -155 -22 -44 -53 -76 -74 -76 -27 0
-95 85 -139 173 -47 93 -51 139 -19 219 47 118 3 251 -126 385 -81 84 -107 92
-148 43 -30 -35 -51 -96 -71 -202 -26 -136 -50 -150 -66 -40 -4 33 -26 100
-48 149 -55 124 -58 139 -27 159 13 9 50 24 82 33 32 9 58 21 58 27 0 12 -103
52 -167 64 -28 6 -72 7 -97 4 -41 -5 -49 -3 -71 21 -23 24 -25 34 -23 101 2
91 18 128 56 132 40 5 36 41 -17 149 -65 134 -92 216 -110 337 -21 137 -42
177 -160 301 -112 117 -131 122 -195 49z"/>
<path d="M9648 12294 c-52 -56 -173 -221 -202 -273 -30 -56 -25 -69 46 -116
24 -16 77 -55 118 -86 100 -75 152 -100 219 -106 48 -4 64 -1 111 24 74 39 81
60 51 161 -12 42 -43 119 -67 170 -36 75 -61 109 -127 177 -45 47 -90 85 -99
85 -10 0 -32 -16 -50 -36z"/>
<path d="M13225 11835 c-84 -30 -120 -114 -120 -285 0 -107 2 -118 27 -161 15
-25 40 -54 55 -64 24 -16 33 -17 72 -6 70 19 126 56 146 96 20 43 31 194 21
279 -6 46 -15 65 -43 97 -20 22 -50 43 -71 49 -44 12 -38 12 -87 -5z"/>
<path d="M1320 10733 c0 -21 5 -56 11 -78 5 -22 13 -106 17 -187 5 -89 12
-152 19 -159 9 -9 51 7 173 66 175 84 232 99 275 71 62 -40 115 -178 164 -424
44 -215 53 -345 54 -777 l2 -380 76 -160 c93 -195 102 -223 97 -290 -5 -63
-63 -190 -136 -297 -67 -98 -91 -122 -200 -202 -51 -37 -100 -82 -108 -98 -28
-54 -18 -350 16 -503 8 -35 7 -61 -5 -111 -22 -96 -20 -112 36 -251 65 -161
74 -236 38 -304 -22 -42 -24 -56 -27 -258 l-4 -213 39 -32 c99 -80 132 -118
149 -169 9 -29 54 -115 99 -192 46 -77 98 -174 116 -215 46 -104 90 -178 174
-295 75 -104 107 -160 119 -208 6 -24 21 -35 89 -67 148 -69 1321 -502 1819
-671 141 -48 190 -61 198 -52 8 7 15 101 22 280 l10 268 -219 475 c-121 261
-257 559 -302 661 -53 120 -107 225 -153 295 -88 134 -93 164 -54 305 39 145
220 677 481 1414 306 865 347 985 341 1000 -2 6 -33 22 -68 35 -95 35 -551
232 -823 355 -496 225 -867 429 -1825 1005 -480 289 -674 400 -698 400 -7 0
-12 -15 -12 -37z"/>
<path d="M11676 10498 c-36 -57 -69 -258 -86 -528 -13 -216 -22 -260 -64 -330
-69 -113 -60 -129 78 -139 118 -9 135 -22 147 -106 9 -66 22 -85 57 -85 51 0
110 40 180 123 86 101 126 165 148 231 18 56 40 86 61 86 43 0 124 -64 154
-121 22 -44 42 -52 183 -75 127 -21 164 -15 205 31 38 44 48 92 27 134 -22 41
-67 63 -146 69 -36 2 -73 9 -83 14 -9 5 -36 45 -58 90 -23 45 -51 95 -62 111
-32 42 -199 164 -340 248 -179 106 -187 112 -242 191 -49 71 -52 73 -97 76
-40 3 -49 0 -62 -20z"/>
<path d="M14016 9250 c-127 -74 -174 -81 -366 -55 -125 17 -248 19 -287 4 -37
-14 -78 -54 -108 -105 l-24 -41 49 -126 c60 -157 80 -236 80 -314 0 -87 15
-154 56 -252 69 -162 83 -212 84 -286 0 -83 -10 -123 -79 -313 -28 -78 -51
-160 -51 -181 0 -57 33 -96 160 -192 200 -149 280 -256 335 -444 74 -253 65
-417 -33 -610 -61 -121 -207 -289 -384 -442 -92 -79 -111 -106 -89 -128 5 -6
19 -34 31 -64 11 -30 38 -79 60 -110 21 -31 45 -78 53 -106 9 -27 27 -90 42
-140 15 -49 56 -166 92 -260 76 -199 88 -267 55 -331 -11 -22 -25 -66 -31 -98
-12 -64 -23 -84 -58 -97 -17 -6 -23 -16 -23 -38 0 -26 96 -822 150 -1246 32
-246 60 -402 87 -489 47 -150 152 -221 435 -295 173 -44 284 -90 364 -151 99
-75 199 -75 386 0 174 70 202 64 264 -48 21 -37 43 -71 48 -75 37 -28 547 52
663 103 53 23 175 138 210 198 38 65 57 137 98 372 44 257 73 375 111 454 31
65 53 79 139 91 28 3 62 9 78 11 l27 6 0 110 c0 107 1 110 28 138 20 20 43 30
78 35 85 12 166 36 264 77 132 56 188 75 314 103 134 31 197 64 247 130 51 68
72 120 72 180 0 62 -18 99 -75 151 -52 48 -105 60 -206 44 -131 -21 -302 -117
-547 -307 -244 -190 -386 -359 -482 -577 -84 -189 -168 -309 -348 -495 -66
-68 -174 -173 -240 -234 -242 -221 -231 -190 30 82 320 334 364 397 545 791
145 317 302 547 384 561 27 5 59 73 97 205 44 152 59 178 130 224 81 52 203
99 579 220 651 209 796 263 905 335 73 49 106 99 200 304 41 89 91 185 110
212 20 27 88 98 152 158 l115 109 -52 70 -53 70 -66 -24 c-36 -13 -228 -83
-426 -155 -896 -325 -891 -324 -1027 -314 -104 7 -99 12 -123 -130 -9 -55 -19
-103 -21 -107 -13 -21 -230 1 -320 32 -32 11 -83 23 -113 26 -115 12 -149 37
-177 131 -21 70 -25 72 -107 66 -63 -5 -75 -3 -99 16 -33 26 -48 75 -48 154 0
64 -12 81 -94 137 -44 30 -121 128 -148 188 -28 63 -26 113 10 181 17 32 35
77 41 99 20 73 140 212 183 212 9 0 59 -13 113 -30 54 -16 101 -30 105 -30 4
0 28 17 55 38 51 40 43 38 268 42 25 0 57 58 57 106 0 47 -63 184 -158 341
-32 54 -67 113 -76 132 -28 54 -64 208 -86 373 -14 104 -26 161 -38 177 -10
14 -44 41 -77 60 -103 63 -111 89 -92 307 l8 92 -77 4 c-88 4 -94 10 -113 90
-6 30 -29 87 -51 128 -22 41 -59 112 -81 158 -23 45 -45 82 -49 82 -5 0 -18
-19 -29 -43 -19 -40 -21 -60 -20 -223 1 -155 -2 -188 -20 -244 -44 -139 -195
-342 -254 -342 -17 0 -72 26 -135 64 -114 69 -157 88 -204 88 -45 0 -83 25
-116 77 -90 140 -182 455 -182 621 l0 68 -182 37 c-302 61 -278 51 -314 127
-18 36 -45 77 -60 92 -67 61 -388 238 -433 238 -15 0 -57 -18 -95 -40z"/>
<path d="M12309 9260 c-53 -9 -97 -30 -120 -56 -51 -58 -87 -196 -59 -229 9
-10 31 -15 75 -15 108 0 216 70 267 175 21 41 29 78 20 91 -20 31 -107 48
-183 34z"/>
<path d="M12920 9060 c-38 -41 -53 -91 -48 -156 6 -66 44 -114 90 -114 26 0
32 7 55 58 35 74 39 188 9 221 -28 31 -72 27 -106 -9z"/>
<path d="M4813 8898 c-6 -18 -68 -188 -138 -378 -69 -190 -198 -544 -286 -788
-298 -827 -367 -1038 -410 -1236 l-22 -104 61 -70 c78 -92 102 -133 153 -272
42 -116 70 -178 283 -634 204 -435 269 -587 273 -641 3 -27 -5 -101 -16 -164
-29 -161 -28 -208 9 -282 48 -93 59 -98 558 -233 319 -87 428 -113 436 -105 2
2 52 207 110 454 58 248 265 1118 460 1935 195 817 350 1486 346 1488 -5 2
-22 -4 -39 -12 -40 -21 -79 -20 -118 4 -37 22 -40 35 -17 70 28 42 126 140
173 172 30 21 50 46 66 82 25 55 52 163 43 172 -3 3 -86 29 -184 59 -99 29
-323 96 -499 149 -176 52 -444 134 -595 182 -363 114 -598 184 -620 184 -10 0
-21 -13 -27 -32z"/>
<path d="M16150 8832 c0 -55 59 -193 115 -271 24 -32 31 -51 55 -146 17 -67
21 -70 116 -74 l87 -3 -7 -102 c-4 -55 -12 -127 -18 -158 -11 -53 -10 -60 9
-85 11 -16 48 -44 81 -63 34 -19 69 -45 77 -57 22 -32 43 -122 60 -268 30
-251 33 -261 139 -429 76 -122 166 -305 173 -352 3 -29 -5 -65 -31 -138 -40
-108 -44 -141 -20 -150 28 -11 94 -6 131 9 51 22 70 19 77 -11 14 -53 -26
-171 -67 -199 -13 -9 -45 -15 -82 -15 -78 0 -114 -11 -195 -60 -88 -53 -152
-53 -180 0 -15 28 -4 45 100 157 49 53 96 111 106 129 26 48 11 59 -84 59 -68
0 -83 -4 -134 -32 -69 -40 -83 -40 -178 -8 -40 14 -83 25 -95 25 -32 0 -78
-54 -146 -175 -48 -83 -63 -119 -62 -147 1 -52 55 -140 122 -197 145 -124 133
-106 142 -214 4 -54 11 -102 14 -108 8 -11 44 -6 117 17 35 11 52 12 67 5 23
-13 56 -96 66 -167 l6 -51 97 -6 c60 -4 129 -15 177 -30 183 -57 188 -53 216
142 18 125 32 133 158 87 24 -9 63 -16 88 -16 59 0 251 63 688 227 198 75 455
168 571 209 l212 73 71 -85 c40 -46 76 -84 80 -84 12 0 100 126 137 195 50 97
47 109 -48 249 l-82 121 -6 80 -5 80 -55 37 c-30 20 -86 53 -124 73 -62 32
-76 35 -150 35 -80 0 -84 1 -136 40 -29 22 -63 40 -75 40 -60 0 -203 -139
-312 -304 -80 -121 -123 -170 -164 -187 -28 -11 -33 -10 -45 6 -11 15 -11 23
1 52 29 69 92 145 313 377 79 83 151 162 160 175 15 22 15 24 -3 37 -10 8 -56
26 -102 41 l-83 27 -52 -24 c-63 -28 -77 -28 -238 -6 -177 23 -216 34 -264 71
-74 56 -128 82 -257 124 -69 23 -144 53 -166 68 -79 51 -101 128 -81 283 l8
55 -61 24 c-89 34 -112 58 -154 164 -42 104 -55 123 -95 132 -48 11 -101 57
-226 195 -131 146 -482 483 -526 506 -26 13 -28 13 -28 -4z"/>
<path d="M6811 8286 c-17 -67 -14 -85 12 -90 156 -29 365 -101 545 -188 98
-48 135 -79 115 -99 -6 -6 -42 -2 -92 10 -102 24 -355 43 -520 39 l-125 -3
-33 -130 c-77 -304 -817 -3374 -893 -3709 -27 -114 -30 -140 -19 -147 17 -10
186 -51 559 -134 613 -137 866 -183 1240 -230 233 -29 344 -35 359 -20 15 15
24 118 81 905 119 1673 149 2152 137 2184 -6 15 -10 15 -46 -4 -79 -40 -94
-23 -51 57 32 62 37 118 21 248 l-8 60 97 105 97 105 47 355 c26 195 49 369
52 387 4 26 0 35 -18 47 -24 15 -1484 296 -1539 296 -4 0 -12 -20 -18 -44z"/>
<path d="M8460 8028 c0 -7 -18 -155 -41 -328 -28 -218 -42 -361 -44 -465 -2
-147 -3 -152 -33 -205 -16 -30 -35 -80 -41 -110 -18 -91 -47 -448 -116 -1405
-115 -1610 -134 -1928 -118 -1952 6 -8 82 -20 203 -33 599 -62 888 -90 995
-95 66 -3 154 -8 196 -10 l77 -5 6 32 c7 43 32 409 51 773 26 496 39 594 90
694 37 73 84 131 356 432 604 671 1069 1210 1069 1240 0 5 -33 18 -72 29 -40
12 -118 37 -173 56 -112 38 -145 41 -258 19 -89 -17 -223 -20 -232 -5 -3 5
-10 57 -15 115 -19 214 -85 496 -124 531 -13 12 -59 33 -102 48 -44 15 -102
39 -131 53 -71 34 -77 54 -75 271 1 128 -2 174 -11 176 -7 2 -133 16 -282 30
-148 15 -471 49 -717 77 -246 27 -450 49 -453 49 -3 0 -5 -6 -5 -12z m520
-2647 c48 -37 139 -223 184 -373 20 -65 49 -186 66 -270 17 -84 42 -189 55
-234 37 -122 63 -241 71 -322 l7 -73 -42 -39 c-46 -44 -109 -80 -139 -80 -55
0 -57 76 -7 244 35 118 44 186 26 186 -6 0 -13 -5 -16 -11 -11 -17 -49 -28
-62 -17 -9 7 -11 34 -6 97 5 82 4 88 -18 114 -19 22 -36 29 -79 34 -30 3 -63
10 -72 14 -18 10 -141 245 -169 324 -19 55 -48 83 -100 94 -78 16 -85 0 -93
-240 l-5 -165 75 -75 c42 -41 86 -92 99 -114 25 -42 79 -255 100 -393 16 -106
9 -143 -29 -153 -16 -5 -37 -4 -47 2 -20 10 -21 13 -78 251 -22 92 -49 185
-60 206 -19 37 -52 70 -160 161 -29 24 -56 52 -60 63 -4 10 1 70 10 131 28
179 28 179 -40 250 -93 99 -102 129 -46 172 35 26 36 27 34 97 -2 60 1 73 17
85 58 42 115 17 193 -83 31 -40 58 -73 61 -73 3 -1 20 27 38 62 77 150 197
203 292 128z"/>
<path d="M1119 7993 c-21 -55 -29 -121 -35 -283 -7 -176 5 -339 31 -441 19
-74 66 -178 72 -162 2 6 -6 65 -18 130 -11 65 -22 150 -23 188 -1 65 2 74 36
127 21 32 74 103 118 158 46 58 80 110 80 123 0 30 -77 105 -154 151 -72 43
-93 45 -107 9z"/>
<path d="M11115 6453 c-59 -65 -325 -361 -590 -658 -265 -297 -531 -592 -590
-655 -130 -140 -169 -196 -195 -279 -29 -92 -35 -168 -66 -753 -30 -576 -32
-539 31 -616 21 -26 44 -72 56 -114 17 -56 28 -74 53 -89 55 -34 183 -68 293
-79 104 -10 111 -12 233 -74 69 -35 157 -73 195 -85 91 -27 337 -62 445 -64
102 -2 123 7 241 101 128 103 169 145 169 175 0 58 78 72 215 37 43 -11 124
-23 179 -27 121 -8 133 -16 164 -118 12 -39 28 -80 37 -92 8 -11 81 -59 161
-104 118 -67 152 -91 176 -126 43 -63 69 -127 78 -195 11 -73 50 -137 131
-212 112 -104 122 -107 358 -122 320 -20 514 -53 603 -101 70 -38 228 -206
267 -283 35 -71 38 -98 16 -140 -17 -33 -43 -50 -75 -50 -28 0 -129 52 -218
112 -41 27 -76 47 -79 44 -3 -3 5 -30 18 -61 25 -62 29 -38 -37 -225 -22 -62
-27 -100 -33 -230 -8 -164 -14 -187 -69 -274 -37 -58 -66 -143 -83 -245 -15
-85 -41 -130 -84 -144 -28 -9 -109 -76 -101 -84 2 -2 33 1 70 8 77 13 136 48
271 163 138 116 162 126 317 126 70 0 128 4 128 9 0 5 -7 14 -15 21 -24 20
-18 43 18 67 28 19 172 71 277 99 63 17 50 62 -30 97 -107 47 -120 99 -41 176
88 86 229 142 519 207 l123 28 187 191 c196 200 344 368 369 421 11 21 13 44
9 68 -4 20 -9 36 -11 36 -2 0 -68 -20 -146 -45 -161 -51 -268 -75 -331 -75
-39 0 -49 6 -104 58 -73 71 -146 104 -387 174 -93 26 -196 62 -230 79 -71 37
-171 128 -199 183 -60 118 -101 390 -246 1656 l-7 65 -86 10 c-47 6 -93 16
-101 23 -9 7 -33 42 -54 78 -38 65 -101 144 -247 309 -136 155 -172 234 -226
500 -45 224 -54 315 -47 437 6 98 5 109 -12 126 -31 31 -188 51 -525 68 l-137
7 -73 54 c-102 77 -126 90 -198 112 -70 22 -248 120 -350 193 -36 25 -111 85
-167 132 -57 47 -104 86 -106 86 -2 0 -52 -53 -111 -117z"/>
<path d="M1562 6210 c-18 -11 -35 -27 -38 -35 -14 -36 71 -260 214 -562 54
-114 109 -235 122 -268 13 -33 43 -80 66 -105 23 -25 58 -77 77 -116 42 -84
137 -206 196 -253 67 -54 194 -81 208 -45 6 16 -18 144 -43 229 -8 28 -51 122
-95 210 -63 126 -86 185 -109 280 -23 89 -39 133 -65 170 -92 135 -399 471
-457 501 -35 18 -37 18 -76 -6z"/>
<path d="M19275 6178 c-46 -26 -117 -93 -140 -132 -51 -87 -72 -283 -85 -781
-8 -336 -16 -436 -35 -488 -4 -9 0 -35 9 -57 22 -55 20 -86 -9 -164 -14 -37
-25 -83 -25 -104 0 -37 31 -102 49 -102 6 0 84 27 175 60 91 33 203 69 247 80
45 12 125 41 178 66 53 25 119 54 146 64 59 23 227 60 238 53 4 -2 7 -26 7
-53 0 -40 -6 -55 -35 -91 -51 -60 -60 -80 -44 -90 19 -12 76 -11 121 1 49 14
70 45 107 165 16 55 47 127 67 160 20 33 47 85 60 115 13 30 29 56 37 58 20 4
44 -58 67 -173 31 -152 32 -153 80 -115 33 26 46 25 82 -5 37 -31 59 -27 108
21 32 32 35 39 38 110 5 84 -6 234 -17 252 -6 9 -20 9 -64 1 -65 -13 -82 -6
-92 41 -13 59 -31 58 -88 -3 -29 -32 -58 -57 -64 -57 -15 0 -35 71 -36 122 0
24 11 53 31 85 60 94 52 133 -25 133 -58 0 -129 18 -145 37 -7 9 -13 44 -13
85 0 62 -3 72 -25 90 -40 33 -133 20 -330 -46 -223 -75 -249 -74 -270 13 -14
60 -36 81 -89 88 -37 5 -43 2 -97 -48 l-57 -54 6 55 c35 333 31 533 -10 588
-23 31 -32 35 -58 20z"/>
<path d="M13016 5155 c-27 -8 -56 -20 -64 -28 -12 -13 -12 -17 6 -35 42 -42
220 -89 236 -63 8 13 -32 87 -60 113 -28 24 -63 28 -118 13z"/>
<path d="M17548 4778 c-40 -17 -48 -25 -48 -48 0 -24 8 -31 68 -58 175 -81
249 -92 455 -68 149 18 177 26 177 56 0 66 -264 140 -494 140 -90 -1 -120 -5
-158 -22z"/>
<path d="M18835 3858 c-40 -88 -108 -265 -119 -310 -5 -22 4 -39 52 -100 32
-40 71 -82 86 -91 30 -20 25 -22 98 38 20 16 51 41 69 54 38 29 82 119 77 158
-2 19 -17 38 -48 60 -105 78 -102 74 -112 138 -9 63 -35 127 -54 132 -6 2 -28
-34 -49 -79z"/>
<path d="M17532 3875 c-86 -43 -94 -45 -179 -45 -48 0 -113 -7 -143 -15 -50
-13 -81 -27 -221 -102 -26 -13 -86 -31 -135 -39 -49 -9 -99 -22 -112 -30 -21
-14 -23 -21 -20 -92 l3 -77 60 -15 c61 -16 126 -52 157 -86 24 -27 37 -67 58
-174 32 -164 80 -263 194 -400 74 -89 108 -110 175 -110 58 0 94 15 131 55 14
15 48 37 77 50 70 31 192 157 306 315 49 69 103 139 120 157 17 18 27 38 24
46 -3 9 -34 22 -71 30 -121 28 -180 78 -247 210 -58 113 -66 179 -43 330 6 34
4 37 -19 37 -13 0 -65 -20 -115 -45z"/>
<path d="M17870 3554 c-29 -58 -18 -88 37 -103 183 -49 484 -81 502 -53 12 20
43 173 36 180 -3 3 -92 -13 -197 -35 l-191 -41 -65 49 c-36 27 -73 49 -83 49
-11 0 -26 -17 -39 -46z"/>
<path d="M18509 3330 c-31 -10 -117 -26 -190 -35 -193 -23 -205 -27 -270 -94
-53 -56 -129 -182 -129 -215 0 -22 12 -20 88 13 159 70 162 45 7 -69 -132 -97
-283 -276 -339 -399 -33 -75 -31 -121 10 -210 41 -91 90 -131 159 -131 49 0
81 19 141 82 85 90 151 201 189 317 20 61 54 101 85 101 30 0 61 24 101 76 18
25 77 78 129 117 117 88 320 289 344 340 23 49 14 72 -37 99 -59 31 -208 35
-288 8z"/>
</g>
</svg>
